<?xml version="1.0" standalone="no"?>
<!DOCTYPE svg PUBLIC "-//W3C//DTD SVG 20010904//EN"
 "http://www.w3.org/TR/2001/REC-SVG-20010904/DTD/svg10.dtd">
<svg version="1.0" xmlns="http://www.w3.org/2000/svg"
 width="700.000000pt" height="700.000000pt" viewBox="0 0 700.000000 700.000000"
 preserveAspectRatio="xMidYMid meet">
<metadata>
Created by potrace 1.14, written by Peter Selinger 2001-2017
</metadata>
<g transform="translate(0.000000,700.000000) scale(0.100000,-0.100000)"
fill="#000000" stroke="none">
<path d="M1474 6400 c-152 -36 -295 -144 -357 -269 l-32 -65 1 -2390 0 -2391
28 -57 c30 -64 79 -111 145 -141 l46 -21 2269 -1 c2442 0 2308 -3 2336 51 11
19 13 462 13 2377 0 2294 0 2354 -19 2385 -11 20 -30 36 -48 40 -17 5 -1036 8
-2266 7 -1829 -1 -2240 1 -2262 12 -82 39 -50 142 68 221 104 69 -84 64 2405
64 2085 0 2251 -1 2275 -17 14 -9 31 -29 37 -44 9 -21 12 -555 11 -2177 -1
-1182 -2 -2157 -3 -2166 -1 -19 -46 -68 -62 -68 -5 0 -17 -15 -25 -34 -32 -66
3 -133 74 -141 54 -6 138 59 180 139 l27 51 0 2215 0 2215 -23 46 c-32 64 -86
117 -152 148 l-55 26 -2271 1 c-2061 0 -2278 -1 -2340 -16z"/>
</g>
</svg>
